<svg width="120" height="14" viewBox="0 0 120 14" fill="none" xmlns="http://www.w3.org/2000/svg">
<path d="M4.11272 3.07141L0.849121 4.24897V5.65202L2.55623 5.05072V12.1411H0.849121V13.5191H5.81983V12.1411H4.11272V3.07141Z" fill="#ffffff"/>
<path d="M15.4344 6.22826C16.4386 5.652 16.9909 4.64982 16.9909 3.47226C16.9909 1.69339 15.4093 0.190125 13.5516 0.190125C11.4679 0.190125 9.88632 1.66834 9.88632 3.59754C9.88632 4.7751 10.4888 5.75222 11.5181 6.30342C10.1123 6.90473 9.2085 8.25767 9.2085 9.786C9.2085 12.0158 11.0913 13.7697 13.5014 13.7697C15.8612 13.7697 17.7943 11.9407 17.7943 9.66072C17.7943 8.20756 16.8403 6.82957 15.4344 6.22826ZM11.3675 3.62259C11.3675 2.49514 12.2964 1.56812 13.4512 1.56812C14.606 1.56812 15.5349 2.49514 15.5349 3.64764C15.5349 4.7751 14.606 5.70211 13.4261 5.70211C12.2964 5.70211 11.3675 4.75004 11.3675 3.62259ZM13.4763 12.3666C11.9449 12.3666 10.765 11.189 10.765 9.71083C10.765 8.28273 11.9951 7.08011 13.4512 7.08011C14.9574 7.08011 16.1625 8.25767 16.1625 9.71083C16.1625 11.189 14.9574 12.3666 13.4763 12.3666Z" fill="#ffffff"/>
<path d="M23.7197 2.79578C22.4394 2.79578 21.1591 3.34698 20.2553 4.3241C19.4018 5.20101 19.0503 6.17813 19.0503 7.60624V8.95918C19.0503 10.4374 19.4771 11.5147 20.431 12.4167C21.3348 13.2936 22.5147 13.7696 23.7449 13.7696C25.0503 13.7696 26.3055 13.2184 27.2344 12.2664C28.0628 11.3895 28.4143 10.3873 28.4143 8.95918V7.60624C28.4143 6.10297 28.0126 5.05068 27.0336 4.14872C26.1549 3.29687 24.9499 2.79578 23.7197 2.79578ZM26.8327 8.95918C26.8327 9.78598 26.7323 10.4374 26.2804 11.0888C25.7281 11.8655 24.749 12.3415 23.7449 12.3415C22.7658 12.3415 21.8369 11.8906 21.2846 11.1389C20.7574 10.4875 20.657 9.78598 20.657 8.95918V7.63129C20.657 6.82955 20.7574 6.17813 21.2344 5.52672C21.7867 4.75003 22.7658 4.27399 23.7449 4.27399C24.749 4.27399 25.6779 4.72497 26.2302 5.47661C26.7323 6.12802 26.8327 6.77944 26.8327 7.65635V8.95918Z" fill="#ffffff"/>
<path d="M34.2881 2.79578C32.9827 2.79578 31.7274 3.34698 30.8237 4.3241C29.9701 5.20101 29.6187 6.17813 29.6187 7.60624V8.95918C29.6187 10.4374 30.0454 11.5147 30.9994 12.4167C31.9032 13.2936 33.0831 13.7696 34.3132 13.7696C35.6187 13.7696 36.8739 13.2184 37.8028 12.2664C38.6312 11.3895 38.9827 10.3873 38.9827 8.95918V7.60624C38.9827 6.10297 38.581 5.05068 37.6019 4.14872C36.7233 3.29687 35.5182 2.79578 34.2881 2.79578ZM37.4011 8.95918C37.4011 9.78598 37.3007 10.4374 36.8488 11.0888C36.2965 11.8655 35.3174 12.3415 34.3132 12.3415C33.3341 12.3415 32.4053 11.8906 31.853 11.1389C31.3258 10.4875 31.2253 9.78598 31.2253 8.95918V7.63129C31.2253 6.82955 31.3258 6.17813 31.8028 5.52672C32.3551 4.75003 33.3341 4.27399 34.3383 4.27399C35.3425 4.27399 36.2714 4.72497 36.8237 5.47661C37.3258 6.12802 37.4262 6.77944 37.4262 7.65635V8.95918H37.4011Z" fill="#ffffff"/>
<path d="M50.7066 10.4124C50.1794 11.5649 48.9242 12.3165 47.5685 12.3165C45.4848 12.3165 43.853 10.7631 43.853 8.78382C43.853 6.7544 45.4346 5.17597 47.4681 5.17597C48.7484 5.17597 49.9535 5.85244 50.6313 6.90473L50.6815 6.97989H52.0371V3.89819H50.6313V5.02564C49.7526 4.17379 48.648 3.74786 47.4179 3.74786C46.0622 3.74786 44.8321 4.27401 43.8279 5.27619C42.8991 6.2032 42.397 7.48098 42.397 8.80887C42.397 11.5148 44.7317 13.7697 47.4932 13.7697C49.7024 13.7697 51.6355 12.4668 52.3635 10.5126L52.4388 10.3372H50.807L50.7066 10.4124Z" fill="#ffffff"/>
<path d="M58.2131 3.72278C55.3511 3.72278 53.0415 5.97768 53.0415 8.75873C53.0415 11.5147 55.3511 13.7696 58.1879 13.7696C61.0248 13.7696 63.3344 11.4897 63.3344 8.68357C63.3344 5.95263 61.0499 3.72278 58.2131 3.72278ZM58.1879 12.3415C56.1796 12.3415 54.5227 10.713 54.5227 8.73368C54.5227 6.75437 56.1796 5.15088 58.2131 5.15088C60.2214 5.15088 61.8532 6.75437 61.8532 8.73368C61.8532 10.738 60.1963 12.3415 58.1879 12.3415Z" fill="#ffffff"/>
<path d="M73.6274 8.10732C73.6274 6.85459 73.2759 6.00274 73.0751 5.60187C72.4726 4.3742 70.8659 3.72278 69.6609 3.72278C68.4057 3.72278 67.2759 4.27398 66.5981 5.17594V3.87311H63.5103V5.2511H65.1169V12.116H63.5103V13.494H68.2048V12.116H66.5981V8.35786C66.5981 7.58117 66.5981 6.75437 67.2006 6.05285C67.7027 5.47659 68.5312 5.12583 69.3345 5.12583C69.8617 5.12583 71.1421 5.22605 71.6944 6.20317C72.096 6.87964 72.1211 7.60622 72.1211 8.50819V12.116H70.5144V13.494H75.209V12.116H73.6023V8.10732H73.6274Z" fill="#ffffff"/>
<path d="M77.7694 9.61065V5.27622H79.8782V3.89823H77.7694V0.515869H76.2882V3.89823H74.4556V5.27622H76.2882V9.88625C76.2882 12.4919 77.2924 13.7697 79.351 13.7697H80.0288V12.3666H79.351C77.7694 12.3416 77.7694 10.9636 77.7694 9.61065Z" fill="#ffffff"/>
<path d="M89.2923 5.62695C88.3885 4.37423 87.1082 3.74786 85.5266 3.74786C83.7442 3.74786 82.0622 4.64983 81.2839 6.02782L81.2588 6.07793C80.8571 6.7544 80.4806 7.40582 80.4806 8.75876C80.4555 9.73589 80.7316 10.6629 81.2588 11.5148C82.1124 12.9178 83.7693 13.7697 85.5517 13.7697C87.0831 13.7697 88.4387 13.0932 89.3174 11.9156V13.5191H92.0789V12.1411H90.7986V5.27619H92.0789V3.89819H89.3174V5.62695H89.2923ZM85.5768 12.3666C83.5935 12.3666 81.9115 10.713 81.9115 8.78382C81.9115 6.80451 83.5684 5.17597 85.627 5.17597C87.6354 5.17597 89.2923 6.77946 89.2923 8.75876C89.3174 10.7631 87.6856 12.3666 85.5768 12.3666Z" fill="#ffffff"/>
<path d="M100.69 10.4124C100.163 11.5649 98.9076 12.3165 97.5519 12.3165C95.4682 12.3165 93.8364 10.7631 93.8364 8.78382C93.8364 6.7544 95.418 5.17597 97.4515 5.17597C98.7318 5.17597 99.9369 5.85244 100.615 6.90473L100.665 6.97989H102.021V3.89819H100.615V5.02564C99.736 4.17379 98.6565 3.74786 97.4013 3.74786C96.0456 3.74786 94.8155 4.27401 93.8113 5.27619C92.8825 6.2032 92.3804 7.48098 92.3804 8.80887C92.3804 11.5148 94.7151 13.7697 97.4766 13.7697C99.6858 13.7697 101.619 12.4668 102.347 10.5126L102.422 10.3372H100.79L100.69 10.4124Z" fill="#ffffff"/>
<path d="M106.313 9.61065V5.27622H108.422V3.89823H106.313V0.515869H104.832V3.89823H103V5.27622H104.832V9.88625C104.832 12.4919 105.836 13.7697 107.895 13.7697H108.573V12.3666H107.895C106.313 12.3416 106.313 10.9636 106.313 9.61065Z" fill="#ffffff"/>
<path d="M115.427 8.65851C114.724 8.25764 113.92 8.08226 113.218 7.95699C112.163 7.7315 111.209 7.4559 111.209 6.42866C111.209 5.47659 112.088 4.9755 112.941 4.9755C113.393 4.9755 113.845 5.12583 114.197 5.37638C114.548 5.62692 114.749 6.00274 114.749 6.40361V6.52888H116.004V3.89816H114.749V4.49947C114.272 3.99838 113.594 3.72278 112.715 3.72278C111.887 3.72278 110.707 3.99838 110.079 4.80012C109.703 5.27616 109.552 5.77725 109.552 6.47877C109.552 7.33063 109.979 8.10732 110.757 8.58335C111.385 8.95917 112.113 9.1095 112.816 9.25982L112.966 9.28488C113.996 9.48531 115.05 9.7108 115.05 10.8884C115.05 11.9156 114.071 12.542 113.117 12.542C111.887 12.542 110.933 11.7653 110.807 10.6879V10.5627H109.552V13.5191H110.807V12.6923C111.385 13.3938 112.238 13.7696 113.318 13.7696C114.573 13.7696 115.778 13.1683 116.23 12.3165C116.456 11.9156 116.657 11.4396 116.657 10.8132C116.682 9.91124 116.23 9.1095 115.427 8.65851Z" fill="#ffffff"/>
<path d="M119.242 2.84591C119.242 2.59537 119.041 2.47009 118.64 2.47009H118.087V3.8982H118.389V3.29689H118.615L118.891 3.8982H119.242L118.916 3.24678C119.142 3.17162 119.242 3.04635 119.242 2.84591ZM118.59 3.09646H118.389V2.64547H118.59C118.815 2.64547 118.941 2.72064 118.941 2.87096C118.941 3.02129 118.815 3.09646 118.59 3.09646Z" fill="#ffffff"/>
<path d="M119.518 2.2947C119.267 2.04416 118.941 1.91888 118.589 1.91888C118.238 1.91888 117.937 2.04416 117.686 2.26965C117.435 2.52019 117.309 2.8459 117.309 3.17161C117.309 3.49732 117.435 3.82303 117.686 4.04852C117.937 4.29906 118.263 4.42433 118.589 4.42433C118.916 4.42433 119.242 4.29906 119.493 4.04852C119.744 3.82303 119.87 3.49732 119.87 3.14655C119.895 2.8459 119.769 2.54525 119.518 2.2947ZM119.393 3.9483C119.167 4.14873 118.891 4.27401 118.589 4.27401C118.313 4.27401 118.037 4.14873 117.836 3.9483C117.635 3.74786 117.51 3.47226 117.51 3.19666C117.51 2.92106 117.635 2.64546 117.836 2.41997C118.037 2.21954 118.313 2.11932 118.615 2.11932C118.916 2.11932 119.192 2.21954 119.393 2.44503C119.594 2.64546 119.694 2.92106 119.694 3.22172C119.719 3.47226 119.594 3.74786 119.393 3.9483Z" fill="#ffffff"/>
</svg>
