<svg width="45" height="24" viewBox="0 0 45 24" fill="none" xmlns="http://www.w3.org/2000/svg">
<path d="M43.698 21.1326C44.2383 21.8962 44.1303 22.878 43.4818 23.4235C42.7254 23.969 41.6447 23.8599 41.1044 23.2053L37.322 18.2962L33.6477 23.0962C33.1074 23.8599 32.0267 23.8599 31.2702 23.3144C30.5137 22.769 30.4057 21.7871 30.946 21.0235L35.2687 15.3508L30.946 9.67804C30.4057 8.91441 30.6218 7.8235 31.2702 7.27804C32.0267 6.73259 33.1074 6.95077 33.6477 7.60532L37.322 12.5144L41.1044 7.8235C41.6447 7.05986 42.6173 6.95077 43.4818 7.49622C44.2383 8.04168 44.2383 9.13259 43.698 9.89622L39.4833 15.4599L43.698 21.1326ZM24.0297 20.478C21.2199 20.478 18.9505 18.2962 18.9505 15.4599C18.9505 12.7326 21.2199 10.4417 24.0297 10.4417C26.8394 10.4417 29.1089 12.7326 29.1089 15.4599C29.0008 18.2962 26.7314 20.478 24.0297 20.478ZM9.11637 20.478C6.30661 20.478 4.03719 18.2962 4.03719 15.4599C4.03719 12.7326 6.30661 10.4417 9.11637 10.4417C11.9261 10.4417 14.1955 12.7326 14.1955 15.4599C14.1955 18.2962 11.9261 20.478 9.11637 20.478ZM24.0297 7.16895C20.8957 7.16895 18.086 8.91441 16.6811 11.5326C15.2762 8.91441 12.4665 7.16895 9.22443 7.16895C7.27922 7.16895 5.55014 7.8235 4.14526 8.80532V1.8235C4.14526 0.95077 3.38879 0.187134 2.52425 0.187134C1.55164 0.187134 0.795166 0.95077 0.795166 1.8235V15.569C0.903234 20.1508 4.57753 23.7508 9.11637 23.7508C12.3584 23.7508 15.1681 21.8962 16.573 19.278C17.9779 21.8962 20.7877 23.7508 23.9216 23.7508C28.5685 23.7508 32.3509 20.0417 32.3509 15.3508C32.459 10.878 28.6766 7.16895 24.0297 7.16895Z" fill="#ffffff"/>
</svg>
