<?xml version="1.0" encoding="UTF-8"?>
<svg width="48px" height="13px" viewBox="0 0 48 13" version="1.1" xmlns="http://www.w3.org/2000/svg" xmlns:xlink="http://www.w3.org/1999/xlink">
    <title>by Kong</title>
    <g id="Page-1" stroke="none" stroke-width="1" fill="none" fill-rule="evenodd">
        <g id="Group-4-Copy" transform="translate(-874.000000, -328.000000)" fill="#A3B6D9">
            <g id="logo" transform="translate(589.000000, 312.000000)">
                <g id="Group" transform="translate(156.000000, 9.000000)">
                    <path d="M173.300097,9.21276596 L174.393979,10.2248462 L174.393979,9.21276596 L176.574468,9.21525264 L176.574468,17.5605633 C176.574468,18.938186 176.433791,19.1719343 176.077249,19.5499102 C175.819268,19.8279667 175.420971,19.972441 174.752977,19.996411 L174.544358,20 L171.556191,20 L170.569029,18.8785056 L170.569029,18.4060357 L174.393979,18.4060357 L174.393979,17.2571878 L171.636231,17.2571878 C170.797022,17.2571878 170.374992,17.1104735 170.020875,16.7598511 C169.567314,16.2799211 169.382979,15.242974 169.382979,13.2635738 C169.382979,11.2841735 169.608547,10.2074395 170.079086,9.7101027 C170.40101,9.38231258 170.807125,9.23948239 171.465079,9.21622228 L171.670188,9.21276596 L173.300097,9.21276596 Z M156.607362,9.21276596 C157.405335,9.21276596 157.823784,9.34186109 158.159517,9.69190752 C158.672847,10.233114 158.87234,10.9481025 158.87234,13.222163 C158.87234,15.4962234 158.672847,16.2012815 158.159517,16.7375228 C157.818919,17.1024648 157.405335,17.2340426 156.607362,17.2340426 L153.94583,17.2340426 C153.147857,17.2340426 152.729407,17.1024648 152.393675,16.7375228 C151.880344,16.2112119 151.680851,15.4838104 151.680851,13.222163 C151.680851,10.9605155 151.880344,10.2430444 152.393675,9.69190752 C152.722109,9.34186109 153.147857,9.21276596 153.94583,9.21276596 L156.607362,9.21276596 Z M165.830383,9.21276596 C166.51197,9.21276596 166.924903,9.33433804 167.258234,9.65439517 C167.570731,9.95444872 167.706137,10.3439078 167.721842,11.3604319 L167.723404,11.5722568 L167.723404,17.2340426 L165.484615,17.2340426 L165.484615,11.7459313 L165.494565,11.7459313 L165.494565,10.9743207 L162.758267,10.9743207 L162.758267,17.2315615 L160.531915,17.2315615 L160.531915,9.21772808 L162.750804,9.21772808 L162.750804,10.2225586 L163.872686,9.21276596 L165.830383,9.21276596 Z M144.363734,7 L144.363734,10.9659709 L145.073594,10.9659709 L148.06585,7 L150.690852,7 L146.919722,11.8103228 L150.851064,17.2340426 L148.06585,17.2340426 L145.073594,12.9725485 L144.363734,12.9675817 L144.363734,17.2340426 L142,17.2340426 L142,7 L144.363734,7 Z M135.222656,9.24511719 L136.229004,12.4707031 L137.195801,9.24511719 L138.333984,9.24511719 L136.444336,14.7207031 L136.379091,14.8859689 C136.082953,15.5755964 135.612514,15.9204102 134.967773,15.9204102 C134.8125,15.9204102 134.641113,15.894043 134.453613,15.8413086 L134.453613,15.8413086 L134.453613,15.0151367 L134.655762,15.0283203 L134.809482,15.0224316 C135.003779,15.0067285 135.15542,14.9596191 135.264404,14.8811035 C135.400635,14.782959 135.508301,14.6181641 135.587402,14.3867188 L135.587402,14.3867188 L135.741211,13.9780273 L134.071289,9.24511719 L135.222656,9.24511719 Z M174.418234,10.973338 L171.563467,10.973338 L171.563467,15.4493688 L174.408532,15.4493688 L174.418234,10.973338 Z M156.707109,10.9679633 L153.846083,10.9679633 L153.846083,15.4366411 L156.707109,15.4366411 L156.707109,10.9679633 Z M130.612793,7.25 L130.612793,9.70214844 L130.719293,9.58778212 C131.013853,9.30074508 131.392904,9.15722656 131.856445,9.15722656 C132.436523,9.15722656 132.89209,9.37255859 133.223145,9.80322266 C133.554199,10.2338867 133.719727,10.8359375 133.719727,11.609375 L133.719727,11.609375 L133.719727,11.6708984 L133.713623,11.9114041 C133.681071,12.5378508 133.518311,13.0450846 133.225342,13.4331055 C132.895752,13.8696289 132.442383,14.0878906 131.865234,14.0878906 C131.308594,14.0878906 130.875,13.887207 130.564453,13.4858398 L130.564453,13.4858398 L130.511719,14 L129.544922,14 L129.544922,7.25 L130.612793,7.25 Z M131.588379,10.0317383 C131.125488,10.0317383 130.800293,10.2338867 130.612793,10.6381836 L130.612793,10.6381836 L130.612793,12.5981445 L130.681369,12.7281901 C130.877839,13.054579 131.183105,13.2177734 131.597168,13.2177734 C131.931152,13.2177734 132.188965,13.0932617 132.370605,12.8442383 C132.552246,12.5952148 132.645996,12.21875 132.651855,11.7148438 L132.651855,11.7148438 L132.651855,11.5786133 L132.647598,11.3912964 C132.627731,10.9683228 132.53833,10.644043 132.379395,10.418457 C132.197754,10.1606445 131.934082,10.0317383 131.588379,10.0317383 Z" id="by-Kong"></path>
                </g>
            </g>
        </g>
    </g>
</svg>