<svg width="57" height="30" viewBox="0 0 57 30" fill="none" xmlns="http://www.w3.org/2000/svg">
<path d="M18.6491 19.9068H16.1567V29.7839H18.6491V19.9068Z" fill="#ffffff"/>
<path d="M38.7457 22.7371C38.6455 22.685 37.8442 22.2097 36.6521 22.2097C35.0376 22.2097 33.9205 23.3316 33.9205 24.8442C33.9205 26.3118 34.991 27.481 36.6521 27.481C37.8236 27.481 38.6384 27.016 38.7457 26.9568V29.6079C38.4363 29.6955 37.586 29.9592 36.4729 29.9592C33.671 29.9592 31.2134 28.0266 31.2134 24.8442C31.2134 21.8947 33.4397 19.7316 36.4729 19.7316C37.646 19.7316 38.5113 20.0166 38.7457 20.086V22.7371Z" fill="#ffffff"/>
<path d="M12.7301 22.7371C12.6299 22.685 11.8285 22.2097 10.6364 22.2097C9.02196 22.2097 7.90486 23.3316 7.90486 24.8442C7.90486 26.3118 8.97539 27.481 10.6364 27.481C11.808 27.481 12.6228 27.016 12.7301 26.9568V29.6079C12.4206 29.6955 11.5704 29.9592 10.4572 29.9592C7.65539 29.9592 5.19775 28.0266 5.19775 24.8442C5.19775 21.8947 7.42407 19.7316 10.4572 19.7316C11.6304 19.7316 12.4956 20.0166 12.7301 20.086V22.7371Z" fill="#ffffff"/>
<path d="M46.5867 22.2467C45.108 22.2467 44.0098 23.4104 44.0098 24.8441C44.0098 26.2809 45.108 27.4438 46.5867 27.4438C48.0638 27.4438 49.1651 26.2809 49.1651 24.8441C49.1651 23.4104 48.0638 22.2467 46.5867 22.2467ZM51.8059 24.8441C51.8059 27.6696 49.6245 29.9591 46.5867 29.9591C43.5488 29.9591 41.3706 27.6696 41.3706 24.8441C41.3706 22.0233 43.5488 19.7314 46.5867 19.7314C49.6245 19.7314 51.8059 22.0233 51.8059 24.8441Z" fill="#ffffff"/>
<path d="M28.1005 22.1519C28.0634 22.1401 27.0141 21.8503 26.152 21.8503C25.1534 21.8503 24.6102 22.1851 24.6102 22.6595C24.6102 23.2611 25.3428 23.4711 25.7526 23.6006L26.4402 23.8193C28.0578 24.334 28.7952 25.4416 28.7952 26.6448C28.7952 29.1261 26.6131 29.9598 24.7057 29.9598C23.3802 29.9598 22.1384 29.7158 22.016 29.6898V27.4169C22.2355 27.4722 23.2807 27.784 24.3694 27.784C25.6097 27.784 26.1797 27.4216 26.1797 26.8619C26.1797 26.3614 25.6862 26.0724 25.0681 25.8782C24.9173 25.8277 24.6907 25.7566 24.536 25.7061C23.1481 25.2672 21.9907 24.4516 21.9907 22.8166C21.9907 20.9693 23.3739 19.729 25.6712 19.729C26.8847 19.729 28.0262 20.0235 28.1005 20.0432V22.1519Z" fill="#ffffff"/>
<path d="M2.55459 9.29212C2.55459 8.6116 1.9988 8.05975 1.31748 8.05975C0.636169 8.05975 0.0795898 8.6116 0.0795898 9.29212V11.8848C0.0795898 12.5692 0.636169 13.1219 1.31748 13.1219C1.9988 13.1219 2.55459 12.5692 2.55459 11.8848V9.29212Z" fill="#ffffff"/>
<path d="M9.35147 5.8891C9.35147 5.20857 8.79568 4.65515 8.11436 4.65515C7.43225 4.65515 6.87646 5.20857 6.87646 5.8891V11.8852C6.87646 12.5696 7.43225 13.1215 8.11436 13.1215C8.79568 13.1215 9.35147 12.5696 9.35147 11.8852V5.8891Z" fill="#ffffff"/>
<path d="M16.1483 1.23316C16.1483 0.552632 15.5925 0 14.9112 0C14.2291 0 13.6733 0.552632 13.6733 1.23316V14.3487C13.6733 15.0332 14.2291 15.5858 14.9112 15.5858C15.5925 15.5858 16.1483 15.0332 16.1483 14.3487V1.23316Z" fill="#ffffff"/>
<path d="M22.9452 5.8891C22.9452 5.20857 22.3894 4.65515 21.7081 4.65515C21.026 4.65515 20.4702 5.20857 20.4702 5.8891V11.8852C20.4702 12.5696 21.026 13.1215 21.7081 13.1215C22.3894 13.1215 22.9452 12.5696 22.9452 11.8852V5.8891Z" fill="#ffffff"/>
<path d="M29.7342 9.29206C29.7342 8.61153 29.1824 8.05969 28.5042 8.05969C27.8229 8.05969 27.2671 8.61153 27.2671 9.29206V11.8847C27.2671 12.5692 27.8229 13.1218 28.5042 13.1218C29.1824 13.1218 29.7342 12.5692 29.7342 11.8847V9.29206Z" fill="#ffffff"/>
<path d="M29.7372 9.29212C29.7372 8.6116 29.1814 8.05975 28.5001 8.05975C27.8188 8.05975 27.2622 8.6116 27.2622 9.29212V11.8848C27.2622 12.5692 27.8188 13.1219 28.5001 13.1219C29.1814 13.1219 29.7372 12.5692 29.7372 11.8848V9.29212Z" fill="#ffffff"/>
<path d="M36.5341 5.8891C36.5341 5.20857 35.9783 4.65515 35.297 4.65515C34.6149 4.65515 34.0591 5.20857 34.0591 5.8891V11.8852C34.0591 12.5696 34.6149 13.1215 35.297 13.1215C35.9783 13.1215 36.5341 12.5696 36.5341 11.8852V5.8891Z" fill="#ffffff"/>
<path d="M43.331 1.23316C43.331 0.552632 42.7752 0 42.0939 0C41.4117 0 40.856 0.552632 40.856 1.23316V14.3487C40.856 15.0332 41.4117 15.5858 42.0939 15.5858C42.7752 15.5858 43.331 15.0332 43.331 14.3487V1.23316Z" fill="#ffffff"/>
<path d="M50.1278 5.8891C50.1278 5.20857 49.572 4.65515 48.8907 4.65515C48.2086 4.65515 47.6528 5.20857 47.6528 5.8891V11.8852C47.6528 12.5696 48.2086 13.1215 48.8907 13.1215C49.572 13.1215 50.1278 12.5696 50.1278 11.8852V5.8891Z" fill="#ffffff"/>
<path d="M56.9168 9.29206C56.9168 8.61153 56.365 8.05969 55.6868 8.05969C55.0055 8.05969 54.4497 8.61153 54.4497 9.29206V11.8847C54.4497 12.5692 55.0055 13.1218 55.6868 13.1218C56.365 13.1218 56.9168 12.5692 56.9168 11.8847V9.29206Z" fill="#ffffff"/>
<path d="M55.4954 28.4831V28.6378H55.0548V29.7834H54.874V28.6378H54.4312V28.4831H55.4954Z" fill="#ffffff"/>
<path d="M55.5884 28.4831H55.8718L56.261 29.5497H56.2673L56.6439 28.4831H56.9218V29.7834H56.7363V28.7176H56.73L56.3352 29.7834H56.1639L55.7786 28.7176H55.77V29.7834H55.5884V28.4831Z" fill="#ffffff"/>
</svg>
