<svg width="93" height="18" viewBox="0 0 93 18" fill="none" xmlns="http://www.w3.org/2000/svg">
<path d="M18.478 0.147888V17.8119H0.873047V0.147888H18.478ZM37.061 0.147888V17.8119H19.456V0.147888H37.061ZM55.6366 0.147888V17.8119H38.0317V0.147888H55.6366ZM74.2196 0.147888V17.8119H56.6147V0.147888H74.2196ZM92.7953 0.147888V17.8119H75.1903V0.147888H92.7953Z" fill="#FFFFFF"/>
<path d="M6.2998 4.56757H8.43975V13.3996H6.2998V4.56757Z" fill="black"/>
<path d="M13.0505 13.3922H10.69L8.25586 8.97988L10.69 4.56757H13.0505L10.6017 8.97988L13.0505 13.3922Z" fill="black"/>
<path d="M26.663 12.1231L26.2806 13.407H24.001L26.8984 4.55286H29.6193L32.4946 13.407H30.1634L29.781 12.1379L26.663 12.1231ZM28.222 7.09104L27.1925 10.3892H29.2516L28.222 7.09104Z" fill="black"/>
<path d="M47.9373 13.407H45.7826V9.5038L42.8926 4.55286H45.437L46.8636 7.26812L48.2682 4.55286H50.7758L47.9373 9.5038V13.407Z" fill="black"/>
<path d="M63.8212 12.1231L63.4388 13.407H61.1592L64.0566 4.55286H66.7775L69.6528 13.407H67.3216L66.9393 12.1379L63.8212 12.1231ZM65.3802 7.09104L64.3507 10.3892H66.4098L65.3802 7.09104Z" fill="black"/>
<path d="M80.6172 4.56757H82.757V13.3996H80.6172V4.56757Z" fill="black"/>
<path d="M87.3679 13.3922H85.0074L82.5732 8.97988L85.0074 4.56757H87.3679L84.9191 8.97988L87.3679 13.3922Z" fill="black"/>
</svg>
