<svg width="86" height="26" viewBox="0 0 86 26" fill="none" xmlns="http://www.w3.org/2000/svg">
<path d="M10.3911 1.02453C9.86481 1.25668 1.39658 6.2284 1.17651 6.4412C1.05211 6.5476 0.860742 6.80876 0.765056 7.00221C0.592821 7.34075 0.583252 7.65028 0.583252 12.9799C0.583252 18.3095 0.592821 18.619 0.765056 18.9576C0.860742 19.151 1.05211 19.4122 1.17651 19.5186C1.41572 19.7411 9.90308 24.7224 10.4102 24.9352C10.8599 25.1287 11.6159 25.0997 12.0943 24.8772C12.3144 24.7708 14.4577 23.5327 16.8499 22.1399C20.6486 19.9152 21.2419 19.5379 21.4907 19.18L21.7777 18.7641V12.9799L21.7777 7.19566L21.4907 6.77974C21.2419 6.42185 20.6486 6.04462 16.8499 3.81992C14.4577 2.42706 12.3144 1.18897 12.0943 1.08257C11.6254 0.860098 10.8217 0.831079 10.3911 1.02453ZM13.0512 4.07141C14.0846 4.67111 14.2664 4.8162 14.2664 5.01932V5.25147L12.2378 5.19343C9.05147 5.10638 8.25728 5.04834 8.19987 4.90325C8.17116 4.8162 8.49649 4.56471 9.15673 4.17781C10.5442 3.35563 10.6877 3.2976 11.3001 3.33629C11.7594 3.36531 11.9986 3.46203 13.0512 4.07141ZM7.08991 7.07959C7.58748 9.85563 8.51563 11.9449 9.67343 12.8735L10.1519 13.2507L9.72128 13.4635C9.49163 13.5796 9.06104 13.9278 8.76442 14.247C7.80755 15.3013 7.15689 17.0521 6.88897 19.2768C6.82199 19.8281 6.75501 20.3021 6.74544 20.3214C6.6976 20.3794 3.6165 18.561 3.29117 18.2708C2.6118 17.6711 2.6405 17.8646 2.6405 12.9799C2.6405 8.15325 2.62137 8.31769 3.23376 7.73733C3.37729 7.59224 4.23846 7.05057 5.12834 6.51858C6.43924 5.75444 6.76458 5.59968 6.81242 5.71575C6.85069 5.80281 6.97509 6.41218 7.08991 7.07959ZM17.3092 6.55727C19.0794 7.59224 19.2708 7.73733 19.5387 8.25965C19.7109 8.59819 19.7205 8.88837 19.7205 12.9799C19.7205 17.0714 19.7109 17.3616 19.5387 17.7001C19.2708 18.2224 19.0794 18.3675 17.2326 19.4509L15.5581 20.4278L15.4816 19.9635C14.8692 16.3363 14.075 14.218 12.8694 13.0186L12.2761 12.4286L12.611 12.3125C12.7928 12.2448 13.1755 11.9546 13.453 11.6644C14.4673 10.6488 15.1562 8.97542 15.472 6.80876C15.5581 6.16069 15.6538 5.6287 15.6825 5.6287C15.7017 5.6287 16.4384 6.04462 17.3092 6.55727ZM14.1324 6.56694C14.0176 7.6406 14.0941 7.5729 13.0894 7.51486C12.6014 7.48584 11.4054 7.43748 10.4102 7.40846C8.6783 7.35043 8.62089 7.34075 8.57304 7.13763C8.35297 6.16069 8.35297 6.11233 8.51563 6.10266C8.72614 6.08331 12.3909 5.95757 13.3956 5.93822L14.1898 5.91888L14.1324 6.56694ZM13.8358 8.64656C13.7975 8.8787 13.7305 9.22691 13.6827 9.43004L13.587 9.7976L11.8934 9.73956C10.9652 9.71054 9.97963 9.66218 9.71171 9.63316L9.22371 9.5848L9.07061 9.07215C8.97493 8.79165 8.90794 8.51114 8.90794 8.4531C8.90794 8.37572 9.36724 8.33703 10.4198 8.30801C11.2427 8.29834 12.3718 8.26932 12.9076 8.25965L13.9028 8.24031L13.8358 8.64656ZM13.3573 10.6778C13.2043 11.1808 12.7545 11.8675 12.4292 12.119L12.0656 12.3802L11.4819 12.1577C10.7834 11.9062 10.3624 11.5774 9.96049 10.997L9.66387 10.5714L10.9843 10.5327C11.7115 10.523 12.5536 10.494 12.8598 10.4844C13.3956 10.465 13.4148 10.4747 13.3573 10.6778ZM10.9174 13.5216C11.4532 13.6957 12.056 14.1793 12.3335 14.6629L12.5249 14.9918L11.1757 15.0595C10.4294 15.0982 9.63516 15.1079 9.41508 15.0885L9.00363 15.0595L9.23328 14.5759C9.45336 14.1019 9.81696 13.6957 10.1997 13.4829C10.4389 13.3474 10.3719 13.3378 10.9174 13.5216ZM11.1279 15.9397L13.0129 15.9977L13.2234 16.6265C13.3286 16.965 13.4052 17.2745 13.3765 17.2939C13.3095 17.3616 8.61132 17.555 8.55391 17.4873C8.50606 17.439 8.66873 16.3073 8.77398 15.9494C8.81226 15.843 8.88881 15.7946 9.03234 15.8333C9.14716 15.8527 10.0945 15.901 11.1279 15.9397ZM11.3862 18.2998C12.6206 18.3579 13.6444 18.4159 13.6731 18.4352C13.6923 18.4643 13.7688 18.7448 13.8358 19.0543L13.9506 19.6347L12.1708 19.6927C11.1948 19.7217 9.90308 19.7701 9.30026 19.7991L8.219 19.8571L8.28598 19.1027C8.32426 18.6867 8.3721 18.3192 8.40081 18.2708C8.44865 18.1838 8.64959 18.1838 11.3862 18.2998ZM13.9602 20.7277C14.0941 20.776 14.1707 20.8921 14.1707 21.0275C14.1611 21.2113 13.9506 21.3757 12.9937 21.9271C11.8742 22.5751 11.7977 22.6041 11.1948 22.6041C10.592 22.6041 10.525 22.5751 9.37681 21.9077C8.21901 21.2403 8.1903 21.2113 8.16159 20.8631L8.13289 20.5052L10.9365 20.5729C12.477 20.6116 13.8358 20.6793 13.9602 20.7277Z" fill="#ffffff"/>
<path d="M25.194 10.5327L25.2227 16.8005L25.4906 17.3422C25.8829 18.1547 26.591 18.59 27.5383 18.59H27.9497V18.1063V17.6227L27.5479 17.5647C27.0407 17.4776 26.5719 17.0423 26.4283 16.5104C26.3614 16.2492 26.3231 14.1986 26.3231 10.1941V4.27449H25.749H25.1653L25.194 10.5327Z" fill="#ffffff"/>
<path d="M60.1953 6.26713V8.25969L59.9369 8.20165C59.7838 8.17264 59.3532 8.10493 58.9801 8.04689C56.7984 7.71802 54.6646 8.88841 53.6695 10.9487C53.2485 11.8289 53.1145 12.4479 53.1145 13.4926C53.1145 14.9725 53.5547 16.0848 54.5689 17.1875C55.7172 18.4256 56.9324 18.8512 59.0949 18.7448C60.3771 18.6868 60.8651 18.6094 61.8985 18.3386L62.4917 18.1741V11.2292V4.27457H61.3435L60.1953 4.27457V6.26713ZM59.1523 10.0781C59.4394 10.1362 59.7838 10.2232 59.9369 10.2813L60.1953 10.3877V13.5119V16.6265L59.6977 16.6942C58.0328 16.8877 56.9707 16.6265 56.2817 15.8333C55.0378 14.3921 55.1048 12.1384 56.4252 10.9583C57.0568 10.3973 57.5543 10.1749 58.5782 9.99109C58.6165 9.98142 58.8748 10.0298 59.1523 10.0781Z" fill="#ffffff"/>
<path d="M34.1687 8.06618C32.8195 8.2016 31.6139 8.93672 30.7527 10.1555C30.1499 11.0163 29.8724 11.7128 29.7863 12.68C29.6523 14.1696 29.9011 15.4174 30.5518 16.4233C31.6904 18.1741 33.4893 19.0349 35.4605 18.7834C36.6948 18.6287 37.5082 18.2031 38.3598 17.2939C39.4793 16.1041 39.862 15.0982 39.8525 13.3668C39.8429 11.6934 39.4889 10.7939 38.3693 9.55577C37.3072 8.38538 35.8911 7.8824 34.1687 8.06618ZM36.3886 9.46871C38.9147 10.6778 39.5558 14.3244 37.6325 16.4814C36.1207 18.1837 33.7286 18.2418 32.1306 16.6168C31.2407 15.7172 30.9058 14.8273 30.9058 13.3765C30.9154 12.0706 31.2886 11.0744 32.0828 10.2715C32.9152 9.43002 33.7477 9.10115 34.9342 9.13984C35.6231 9.15919 35.8432 9.20755 36.3886 9.46871Z" fill="#ffffff"/>
<path d="M68.2523 8.04681C67.3145 8.14354 66.5586 8.28863 65.8697 8.5111L65.3625 8.66586V13.6279V18.59H66.5108H67.659V14.4404V10.2909L68.1662 10.1651C68.8934 9.97166 70.1851 9.99101 70.788 10.2038C71.4099 10.4263 72.0797 11.0163 72.3094 11.5483C72.4625 11.9159 72.4912 12.3318 72.5199 15.2723L72.5582 18.59H73.649H74.7398V15.1755C74.7398 12.3995 74.7111 11.6547 74.5867 11.1904C74.2039 9.66214 73.0557 8.56913 71.4769 8.20157C70.6731 8.00812 69.2474 7.94041 68.2523 8.04681Z" fill="#ffffff"/>
<path d="M80.481 8.00815C79.4381 8.2016 78.0219 8.8013 77.6583 9.20755C77.5148 9.37199 77.5243 9.42035 77.9454 10.0587L78.3951 10.7358L79.0745 10.4166C80.2418 9.88464 81.2561 9.74922 82.1747 10.0297C82.7297 10.1942 83.2942 10.7165 83.4378 11.1904C83.5717 11.6451 83.6483 12.1287 83.5621 12.09C82.9115 11.7418 82.6531 11.6837 81.725 11.6451C79.5529 11.558 77.7827 12.4382 77.1033 13.9278C76.9311 14.305 76.8928 14.5565 76.8928 15.398C76.8928 16.5491 76.9981 16.8102 77.7827 17.6421C78.5865 18.4933 80.0313 18.8995 81.5049 18.7061C82.4235 18.5803 82.8636 18.3965 83.3516 17.9516C83.6196 17.7098 83.7439 17.6421 83.7727 17.7291C83.8014 17.8065 83.8683 18.029 83.9258 18.2224L84.0406 18.59H84.94H85.849L85.8203 14.837C85.7916 11.2195 85.7821 11.0744 85.5811 10.5617C85.141 9.46872 84.3085 8.66589 83.1794 8.24029C82.6436 8.0275 81.0839 7.90175 80.481 8.00815ZM83.1411 13.8407L83.6387 14.0632V14.9047C83.6387 15.6592 83.6196 15.7753 83.4282 15.9494C82.4809 16.8296 80.0696 16.8489 79.3041 15.9977C78.8544 15.5044 78.9405 14.7209 79.4859 14.1986C80.1749 13.5506 82.0599 13.3668 83.1411 13.8407Z" fill="#ffffff"/>
<path d="M45.6318 8.19195C44.2731 8.54017 43.2014 9.39136 42.5699 10.6101C42.101 11.5193 41.9192 12.2931 41.9192 13.3668C41.9192 16.2783 43.6511 18.3966 46.2729 18.6771C47.1149 18.7738 48.2727 18.6481 48.933 18.3966C49.2009 18.2902 49.4688 18.2031 49.5167 18.2031C49.6698 18.2031 49.5071 19.4025 49.287 19.9248C49.1531 20.2344 48.9043 20.5826 48.6459 20.8147C47.4786 21.8497 45.4404 21.7046 43.7085 20.4665C43.4597 20.2827 43.2205 20.1376 43.1822 20.1376C43.1344 20.1376 42.9622 20.3021 42.7995 20.5149L42.5029 20.8921L42.7134 21.0856C43.5171 21.8303 45.0481 22.4881 46.2442 22.6138C47.9091 22.7783 49.6219 21.9561 50.263 20.689C50.684 19.8475 50.7223 19.3348 50.7223 13.7827C50.7223 8.87871 50.7127 8.54016 50.5596 8.4918C49.3349 8.1049 46.5982 7.94046 45.6318 8.19195ZM48.933 9.22692L49.5741 9.32365V13.2217V17.1198L48.7895 17.3326C47.7082 17.6324 46.6078 17.6905 45.8902 17.4777C43.8233 16.878 42.5986 14.5952 43.1057 12.2931C43.5076 10.465 44.8472 9.24627 46.6078 9.08183C47.0862 9.04314 48.1675 9.10118 48.933 9.22692Z" fill="#ffffff"/>
</svg>
