<svg width="82" height="23" viewBox="0 0 82 23" fill="none" xmlns="http://www.w3.org/2000/svg">
<path d="M11.2179 21.5619C9.99069 21.7769 8.74185 21.8414 7.44998 22.0131L3.5096 10.4976V22.5073C2.28234 22.6362 1.16272 22.808 0 22.9799V0.979919H3.27289L7.75137 13.4625V0.979919H11.2179V21.5619ZM18.0004 9.03656C19.3355 9.03656 21.381 8.97209 22.6082 8.97209V12.4095C21.0794 12.4095 19.2924 12.4095 18.0004 12.474V17.5874C20.0245 17.4585 22.0485 17.2865 24.0939 17.222V20.5304L14.5553 21.2825V0.979919H24.0939V4.41742H18.0004V9.03656ZM36.9051 4.4175H33.3309V20.23C32.1682 20.23 31.0055 20.23 29.886 20.2728V4.4175H26.3118V0.979919H36.9053L36.9051 4.4175ZM42.5033 8.8003H47.2188V12.2377H42.5033V20.0366H39.1226V0.979919H48.7476V4.41742H42.5033V8.8003ZM54.3457 17.0287C56.3052 17.0716 58.286 17.2222 60.2024 17.3295V20.724C57.1234 20.5306 54.0443 20.3375 50.9007 20.2728V0.979919H54.3457V17.0287ZM63.1091 20.9604C64.2072 21.0249 65.3699 21.0894 66.4895 21.2181V0.979919H63.1091V20.9604ZM81.5833 0.979919L77.2123 11.4428L81.5833 22.9799C80.2913 22.808 78.9994 22.5717 77.7075 22.3568L75.2315 15.9976L72.7125 21.8414C71.4634 21.6263 70.2577 21.5619 69.0091 21.39L73.4445 11.3138L69.4395 0.979919H73.1428L75.4036 6.75923L77.8153 0.979919H81.5833Z" fill="#ffffff"/>
</svg>
